<svg xmlns="http://www.w3.org/2000/svg" width="80" height="80" fill="none"><path fill="#7C5DFA" d="M0 0h60c11.046 0 20 8.954 20 20v40c0 11.046-8.954 20-20 20H0V0Z"/><mask id="a" width="80" height="80" x="0" y="0" maskUnits="userSpaceOnUse" style="mask-type:luminance"><path fill="#fff" d="M0 0h60c11.046 0 20 8.954 20 20v40c0 11.046-8.954 20-20 20H0V0Z"/></mask><g mask="url(#a)"><path fill="#9277FF" d="M80 40.389H20c-11.046 0-20 8.954-20 20v40c0 11.045 8.954 20 20 20h60v-80Z"/></g><path fill="#fff" fill-rule="evenodd" d="M33.288 26 40.5 40.388 47.712 26C52.64 28.575 56 33.708 56 39.618 56 48.113 49.06 55 40.5 55 31.94 55 25 48.113 25 39.618c0-5.91 3.36-11.043 8.288-13.618Z" clip-rule="evenodd"/></svg>
