<svg xmlns="http://www.w3.org/2000/svg" width="194" height="160" fill="none"><path fill="#E6E7E8" d="m24.909 67.103 68.028-42.935 68.028 42.935v62.644H24.909V67.103Z"/><path fill="#231F20" fill-rule="evenodd" d="M24.594 129.748c0 .173.14.314.315.314h136.056a.315.315 0 0 0 .341-.283V67.135a.31.31 0 0 0-.152-.264L93.101 23.93a.321.321 0 0 0-.334 0L24.739 66.84a.302.302 0 0 0-.145.264v62.644Zm136.088-.315H25.205V67.28L92.937 24.56l67.745 42.721v62.153Z" clip-rule="evenodd"/><path fill="#fff" d="M109.509 50.24c2.262-3.733 2.836-8.272 2.628-12.627a30.744 30.744 0 0 0-3.674-13.628 12.307 12.307 0 0 0-3.932-4.507c-2.041-1.259-3.434-.41-5.431-.749-1.69-.29-3.454-1.492-5.325-1.8a17.306 17.306 0 0 0-12.413 2.593c-6.403 4.325-9.358 12.59-15.974 16.605-6.484 3.915-14.783 2.738-22.055 4.904a24.585 24.585 0 0 0-8.418 4.444 14.677 14.677 0 0 0-4.121 4.916c-1.708 3.562-1.26 7.805 0 11.563 1.26 3.865 3.39 7.553 6.692 9.952 2.766 1.995 6.163 2.914 9.521 3.518 4.569.825 9.3 1.133 13.863.145a20.211 20.211 0 0 0 9.118-4.431c1.121-1.001 1.739-2.367 2.785-3.362 1.443-1.366 3.692-2.203 5.381-3.248 2.64-1.643 5.287-3.393 8.299-4.173 7.65-1.99 18.444-2.53 23.056-10.115Z"/><path fill="#231F20" fill-rule="evenodd" d="M46.938 75.734c2.585.488 5.208.745 7.839.768a28.568 28.568 0 0 0 6.15-.598 20.38 20.38 0 0 0 9.288-4.545 10.537 10.537 0 0 0 1.525-1.813c.37-.556.793-1.077 1.26-1.555a14.916 14.916 0 0 1 3.41-2.159c.66-.34 1.29-.686 1.921-1.057l.63-.41.052-.031c2.372-1.476 4.813-2.995 7.51-3.689 1.445-.377 2.988-.692 4.622-1.025l.249-.05v-.001c6.843-1.397 14.581-2.977 18.361-9.158 2.042-3.343 2.918-7.623 2.672-12.785a30.824 30.824 0 0 0-3.711-13.76 12.403 12.403 0 0 0-4.033-4.601 5.4 5.4 0 0 0-3.605-.749 8.327 8.327 0 0 1-1.928-.044c-.845-.19-1.666-.47-2.45-.837a12.552 12.552 0 0 0-2.9-.995 17.59 17.59 0 0 0-12.602 2.663c-3.125 2.127-5.47 5.205-7.732 8.183l-.022.03c-2.381 3.131-4.84 6.365-8.207 8.398-3.869 2.335-8.311 2.826-13.012 3.343-3.028.246-6.029.76-8.967 1.535a24.827 24.827 0 0 0-8.513 4.495 14.725 14.725 0 0 0-4.196 5.035c-1.935 3.991-1.078 8.63-.044 11.778 1.449 4.406 3.787 7.912 6.792 10.07 3.006 2.16 6.73 3.041 9.641 3.564Zm34.588-55.921a16.767 16.767 0 0 1 12.243-2.543c.95.198 1.872.508 2.747.925.822.387 1.684.681 2.571.875a9.2 9.2 0 0 0 2.061.056 4.787 4.787 0 0 1 3.27.63 11.91 11.91 0 0 1 3.831 4.406 30.184 30.184 0 0 1 3.636 13.502c.24 5.048-.63 9.24-2.583 12.463-3.63 5.968-11.254 7.522-17.99 8.888-1.746.353-3.359.686-4.897 1.083-2.789.707-5.272 2.256-7.674 3.753l-.038.024-.668.415c-.586.359-1.216.686-1.89 1.032a15.365 15.365 0 0 0-3.542 2.254c-.499.501-.948 1.05-1.342 1.637a10.07 10.07 0 0 1-1.443 1.718 19.794 19.794 0 0 1-9.023 4.406c-3.939.856-8.425.806-13.73-.145-2.849-.516-6.516-1.39-9.408-3.474-2.893-2.084-5.168-5.47-6.579-9.807-1.014-3.053-1.827-7.516 0-11.33a14.242 14.242 0 0 1 4.045-4.816 24.304 24.304 0 0 1 8.318-4.406 50.508 50.508 0 0 1 8.86-1.51l.043-.005c4.53-.503 9.226-1.023 13.19-3.42 3.463-2.085 5.962-5.374 8.376-8.552l.016-.021.033-.043c2.227-2.926 4.525-5.947 7.567-7.995Z" clip-rule="evenodd"/><path fill="#fff" d="m135.219 44.07-3.315 12.464 7.984 1.423 4.549-16.65s-7.095-5.425-8.191-5.463c-1.097-.038-1.027 8.227-1.027 8.227Z"/><path fill="#231F20" fill-rule="evenodd" d="M139.831 58.273h.057a.308.308 0 0 0 .289-.214l4.556-16.65a.32.32 0 0 0-.113-.333c-1.204-.913-7.24-5.489-8.368-5.527a.542.542 0 0 0-.416.17c-.933.9-.933 7.019-.933 8.353l-3.289 12.407a.307.307 0 0 0 .246.39l7.971 1.404Zm-.158-.674-7.347-1.296 3.226-12.13a.28.28 0 0 0 0-.082c-.025-3.525.252-7.598.7-7.931.605.019 4.423 2.675 7.832 5.268L139.673 57.6Z" clip-rule="evenodd"/><path fill="#fff" d="M126.592 35.92s1.128 2.517 2.754 2.926c1.625.41 5.16-1.334 5.57-1.107.41.226 9.735 7.2 10.643 7.408.907.208 2.577-1.989 3.289-4.601 0 0-9.074-6.181-9.666-6.836-.592-.654-1.298-4.57-2.18-6.005l-10.41 8.215Z"/><path fill="#231F20" fill-rule="evenodd" d="M145.458 45.481c.065.006.13.006.195 0 1.229 0 2.836-2.505 3.485-4.796a.302.302 0 0 0-.126-.34c-3.636-2.48-9.194-6.332-9.61-6.792-.388-.778-.68-1.6-.869-2.449a17.122 17.122 0 0 0-1.26-3.506.342.342 0 0 0-.215-.145.328.328 0 0 0-.252.064l-10.39 8.182a.303.303 0 0 0-.089.372l.004.007c.085.182 1.235 2.644 2.958 3.102 1.09.288 2.879-.301 4.194-.735l.021-.007c.15-.053.312-.116.468-.178.369-.145.709-.278.793-.225.119.075 1.09.774 2.205 1.592 4.947 3.607 7.921 5.716 8.488 5.854Zm-10.391-8.02a.523.523 0 0 0-.258-.056 6.07 6.07 0 0 0-1.531.39l-.014.005c-1.166.384-2.926.964-3.843.726-1.178-.296-2.13-1.926-2.438-2.518l9.899-7.824c.415.987.759 2.003 1.027 3.04.422 1.435.693 2.342 1.015 2.694.567.636 8.002 5.722 9.533 6.76-.762 2.588-2.262 4.325-2.854 4.167-.507-.134-4.357-2.924-7.035-4.865l-1.226-.888-.483-.35c-1.144-.833-1.675-1.219-1.792-1.28Z" clip-rule="evenodd"/><path fill="#231F20" d="M136.51 30.054a3.387 3.387 0 0 0 .359 1.932c.511.913 2.773 2.128 2.773 2.128l1.575-3.147-3.087-2.229-1.62 1.316Z"/><path fill="#231F20" fill-rule="evenodd" d="M139.497 34.39a.289.289 0 0 0 .145.038.242.242 0 0 0 .094-.025.314.314 0 0 0 .189-.157l1.576-3.148a.315.315 0 0 0-.101-.39l-3.081-2.228a.316.316 0 0 0-.391 0l-1.62 1.334a.305.305 0 0 0-.107.195 3.693 3.693 0 0 0 .397 2.128c.536.963 2.653 2.128 2.899 2.254Zm-2.351-2.555a3.043 3.043 0 0 1-.333-1.611l1.329-1.102 2.672 1.932-1.305 2.631c-.73-.421-2.035-1.22-2.363-1.85Z" clip-rule="evenodd"/><path fill="#fff" d="M146.39 38.878s.826-2.6-.63-2.782a1.335 1.335 0 0 0-2.016-1.07s-.466-1.933-1.991-1.542c-1.525.39-2.735 4.035-2.521 4.953.214.92 1.399.36 1.998-.503 0 0-.775 1.435-.259 1.813.756.554 1.55-.428 2.193-1.146 0 0-.951 1.68.448 1.832 1.077.12 2.079-2.052 2.079-2.052l.699.497Z"/><path fill="#231F20" fill-rule="evenodd" d="M143.549 40.755h.119c.964 0 1.771-1.272 2.073-1.914l.429.296a.32.32 0 0 0 .283.038.296.296 0 0 0 .196-.201c.075-.183.561-1.776 0-2.65a1.166 1.166 0 0 0-.662-.498 1.889 1.889 0 0 0-.806-1.14 1.591 1.591 0 0 0-1.261-.075 2.58 2.58 0 0 0-.97-1.259 1.62 1.62 0 0 0-1.298-.163c-1.739.447-2.993 4.261-2.76 5.325a.83.83 0 0 0 .662.699c.318.044.641-.025.913-.195a.97.97 0 0 0 .284.988c.624.46 1.229.17 1.752-.29.003.575.47 1.039 1.046 1.039Zm-.227-2.405a.319.319 0 0 0-.422.038l-.133.151c-.68.755-1.203 1.272-1.644.95-.145-.106.031-.786.352-1.416a.32.32 0 0 0-.113-.415.315.315 0 0 0-.422.088c-.27.457-.734.766-1.26.837-.045-.006-.126-.025-.171-.22-.17-.8.958-4.236 2.3-4.576.272-.085.566-.053.813.088.395.306.675.736.794 1.221.025.09.087.166.17.208a.323.323 0 0 0 .265 0c.317-.184.7-.212 1.04-.076.292.217.487.54.542.9.02.14.13.25.271.271a.571.571 0 0 1 .434.252c.207.547.227 1.146.057 1.706l-.353-.246a.301.301 0 0 0-.264-.044.321.321 0 0 0-.202.17c-.296.63-1.128 1.958-1.758 1.888-.347-.037-.435-.176-.435-.22-.151-.296.088-.9.227-1.145a.321.321 0 0 0-.088-.41Z" clip-rule="evenodd"/><path fill="#fff" d="M139.654 31.079s-.863-1.498-1.77-.183c-.908 1.316-1.998 3.777-.485 4.041 1.512.265 2.646-2.555 2.255-3.858Z"/><path fill="#231F20" fill-rule="evenodd" d="M137.348 35.259c.082.006.164.006.246 0a1.89 1.89 0 0 0 1.386-.705 4.403 4.403 0 0 0 .977-3.557l-.032-.069-.002-.005c-.063-.102-.52-.845-1.201-.876-.46.017-.877.276-1.097.68-.649.931-1.625 2.8-1.184 3.852.159.372.505.631.907.68Zm.794-4.199c.126-.182.328-.403.536-.403h.012c.284.013.567.372.668.535a3.813 3.813 0 0 1-.85 2.928 1.217 1.217 0 0 1-1.059.497.512.512 0 0 1-.429-.302c-.264-.636.36-2.153 1.122-3.255Z" clip-rule="evenodd"/><path fill="#fff" d="M135.212 44.915s-.995-4.752-1.09-5.602c-.158-1.442.183-3.695 1.449-4.048 1.267-.352 4.165-.686 3.687.586-.435 1.158-2.975 1.378-2.975 1.378s1.752 1.763 1.487 3.519"/><path fill="#231F20" d="M135.212 45.23a.315.315 0 0 1-.309-.245c-.037-.195-.995-4.784-1.09-5.665-.163-1.473.152-3.96 1.676-4.407.794-.22 3.22-.673 3.932.101.22.245.272.597.133.894-.359.97-1.809 1.353-2.647 1.505.53.667 1.38 1.982 1.172 3.33a.318.318 0 1 1-.63-.095c.24-1.58-1.38-3.236-1.392-3.248a.326.326 0 0 1-.076-.334.315.315 0 0 1 .271-.201c.63-.057 2.407-.378 2.703-1.177.069-.17 0-.22 0-.246-.334-.371-2.079-.258-3.302.076-1.027.283-1.367 2.335-1.216 3.707.095.825 1.078 5.533 1.084 5.577a.307.307 0 0 1-.246.371l-.063.057Z"/><path fill="#fff" d="M153.82 26.894s-10.498-1.038-14.783 1.442a27.474 27.474 0 0 0-3.088 2.14c-2.325 1.819-4.511 3.884-6.213 5.035-3.377 2.267-6.641 2.726-8.866-.88-1.89-3.079-.787-4.54 1.771-7.277 1.26-1.354 3.932-3.588 6.232-6.062a19.49 19.49 0 0 0 3.403-4.658c1.94-4.079 1.392-10.33 1.392-10.33l20.152 20.59Z"/><path fill="#231F20" fill-rule="evenodd" d="M124.008 37.474c.331.074.67.11 1.009.107 1.443 0 3.081-.604 4.908-1.813a42.617 42.617 0 0 0 3.466-2.757c.876-.75 1.815-1.53 2.766-2.279a27.005 27.005 0 0 1 3.05-2.115c3.925-2.282 13.399-1.507 14.491-1.418l.103.008a.322.322 0 0 0 .315-.182.315.315 0 0 0-.057-.353L133.895 6.064a.309.309 0 0 0-.359-.07.322.322 0 0 0-.183.315c.006.063.529 6.232-1.361 10.198a18.932 18.932 0 0 1-3.346 4.576c-1.329 1.397-2.747 2.744-4.007 3.915-.908.837-1.689 1.567-2.231 2.146-2.584 2.77-3.838 4.363-1.802 7.66a5.377 5.377 0 0 0 3.402 2.67Zm8.558-20.697c1.537-3.267 1.543-7.786 1.468-9.674l18.992 19.43c-2.609-.194-10.473-.56-14.121 1.562a27.839 27.839 0 0 0-3.151 2.172c-.825.645-1.627 1.319-2.41 1.976l-.375.315a40.57 40.57 0 0 1-3.409 2.706c-2.098 1.404-3.92 1.952-5.419 1.624a4.814 4.814 0 0 1-3-2.392c-1.802-2.94-.794-4.248 1.727-6.924.512-.548 1.271-1.252 2.141-2.06l.058-.055.023-.02c1.261-1.173 2.682-2.494 4.016-3.926a19.804 19.804 0 0 0 3.46-4.734Z" clip-rule="evenodd"/><path fill="#231F20" d="M136.51 30.053c-2.325 1.819-5.135 4.23-6.774 5.45-3.743 2.795-6.112 3.091-8.557-.364-2.52-3.55-1.096-5.036 1.462-7.78 1.26-1.354 3.932-3.588 6.232-6.062 0 0 .145 2.574 2.71 5.715a8.934 8.934 0 0 0 4.927 3.04Z"/><path fill="#231F20" fill-rule="evenodd" d="M124.412 37.935c.192.03.385.045.58.044 1.348 0 2.923-.705 4.933-2.222.828-.616 1.945-1.532 3.143-2.514l.266-.218.408-.332c1.003-.82 2.02-1.65 2.964-2.387a.34.34 0 0 0 .113-.328.327.327 0 0 0-.252-.233 8.7 8.7 0 0 1-4.739-2.933c-2.457-3.015-2.64-5.533-2.64-5.533a.315.315 0 0 0-.208-.277.303.303 0 0 0-.334.082c-1.329 1.398-2.747 2.744-4.007 3.915l-.219.202c-.814.75-1.517 1.398-2.043 1.976l-.009.01c-2.553 2.738-4.097 4.394-1.447 8.135 1.122 1.587 2.231 2.417 3.491 2.613Zm.655-12.476c1.128-1.045 2.388-2.216 3.592-3.475a12.586 12.586 0 0 0 2.678 5.225 9.362 9.362 0 0 0 4.474 2.996 248.65 248.65 0 0 0-2.874 2.335l-.712.585c-1.023.841-1.965 1.616-2.678 2.128-2.186 1.63-3.736 2.26-5.041 2.059-1.077-.17-2.054-.92-3.068-2.355-2.344-3.32-1.097-4.663 1.41-7.361l.02-.022c.512-.548 1.271-1.253 2.141-2.061l.058-.054Z" clip-rule="evenodd"/><path fill="#7C5DFA" d="M156.731 26.007c-2.351 2.108-7.562.352-12.634-3.934a36.594 36.594 0 0 1-6.73-7.497c-3.781-5.552-4.959-10.928-2.59-13.049 2.924-2.625 10.221.724 16.289 7.484 6.068 6.76 8.601 14.365 5.665 16.996Z"/><path fill="#231F20" fill-rule="evenodd" d="M134.336 1.067A4.466 4.466 0 0 1 137.418.01c3.881 0 9.401 3.368 14.102 8.554a30.841 30.841 0 0 1 6.345 10.267c1.179 3.462.908 6.168-.712 7.616a4.463 4.463 0 0 1-3.106 1.083c-2.817 0-6.598-1.826-10.379-4.973a38.272 38.272 0 0 1-6.843-7.641c-4.051-5.98-5.053-11.551-2.489-13.849Zm16.711 7.95C146.384 3.824 140.99.64 137.418.64a3.875 3.875 0 0 0-2.641.888c-2.369 2.121-1.19 7.497 2.59 13.049a36.492 36.492 0 0 0 3.063 3.953 36.263 36.263 0 0 0 3.654 3.55c3.636 3.059 7.31 4.828 9.975 4.828a3.865 3.865 0 0 0 2.659-.894c2.949-2.631.404-10.235-5.671-16.996Z" clip-rule="evenodd"/><path fill="#fff" d="m148.287 16.835-4.19 5.237a36.594 36.594 0 0 1-6.73-7.497l6.062-3.72 4.858 5.98Z"/><ellipse cx="145.847" cy="13.866" fill="#231F20" rx="1.795" ry="3.854" transform="rotate(-39.4 145.847 13.866)"/><path fill="#231F20" fill-rule="evenodd" d="M144.204 15.193c1.115 1.36 2.451 2.159 3.44 2.159.298.004.589-.091.826-.271.914-.755.466-2.757-1.021-4.564a6.93 6.93 0 0 0-2.224-1.882c-.845-.377-1.563-.384-2.036 0-.472.384-.604 1.095-.371 2.002.279.939.751 1.81 1.386 2.556Zm-.618-4.073a.709.709 0 0 1 .46-.139c.308.02.609.103.883.246.793.413 1.49.988 2.048 1.687 1.323 1.611 1.644 3.229 1.102 3.676-.542.447-2.067-.183-3.39-1.794a6.297 6.297 0 0 1-1.26-2.316c-.164-.643-.107-1.14.157-1.36Z" clip-rule="evenodd"/><path fill="#231F20" d="M143.133 38.916a.298.298 0 0 1-.158-.044.31.31 0 0 1-.113-.428c.391-.64.875-1.22 1.437-1.719a.314.314 0 0 1 .54.173.313.313 0 0 1-.137.306c-.49.46-.914.985-1.26 1.56a.322.322 0 0 1-.309.152ZM141.198 38.25h-.05a.315.315 0 0 1-.2-.135c-.046-.07-.063-.155-.046-.237.228-.898.76-1.69 1.506-2.24a.315.315 0 0 1 .378.503 3.42 3.42 0 0 0-1.26 1.857.322.322 0 0 1-.328.251ZM145.66 38.696a.318.318 0 0 1-.307-.261.315.315 0 0 1 .055-.237l.428-.63a.328.328 0 0 1 .441-.075c.14.103.174.298.076.441l-.435.63a.302.302 0 0 1-.258.132Z"/><path fill="#fff" d="M125.773 37.342a.309.309 0 0 1-.189-.063c-2.785-2.115-4.512-4.683-4.852-7.226v-.07a.315.315 0 0 1 .138-.358.31.31 0 0 1 .435.1c.038.077.059.16.063.246.322 2.38 1.954 4.796 4.613 6.804a.316.316 0 0 1 .109.355.316.316 0 0 1-.305.212h-.012ZM124.216 27.296a.3.3 0 0 1-.226-.107.306.306 0 0 1 0-.44l3.39-3.148a.302.302 0 0 1 .441 0 .309.309 0 0 1 0 .44l-3.39 3.148a.303.303 0 0 1-.215.107ZM124.683 28.052a.338.338 0 0 1-.233-.1.32.32 0 0 1 0-.447l3.39-3.147a.315.315 0 0 1 .441 0 .317.317 0 0 1 0 .447l-3.384 3.147a.335.335 0 0 1-.214.1ZM125.218 28.92a.288.288 0 0 1-.226-.1.306.306 0 0 1 0-.44l3.39-3.148a.302.302 0 0 1 .441 0 .309.309 0 0 1 0 .44l-3.39 3.148a.298.298 0 0 1-.215.1Z"/><path fill="#7C5DFA" d="m69.137 77.47-1.581 34.885s21.581.258 33.995-4.922a81.33 81.33 0 0 1 3.68-9.75c1.821-3.677 9.641-9.097 7.183-23.171 0 0 18.425 11.645 23.617 6.294 5.193-5.35 7.789-30.34 7.789-30.34l-10.788-3.461-4.902 15.409S97.04 47.389 89.793 45.488c-2.69-.705-11.053 3.739-20.637 9.888"/><path fill="#231F20" d="M89.125 55.95s4.997 15.509 5.854 22.074c.857 6.566.983 17.417.983 17.417s7.908-24.196 6.931-39.14l-13.768-.352Z"/><path fill="#231F20" fill-rule="evenodd" d="M95.924 95.724h.038a.277.277 0 0 0 .27-.195c.076-.22 7.909-24.423 6.932-39.247a.27.27 0 0 0-.271-.258l-13.762-.352a.284.284 0 0 0-.27.365v.005c.11.343 5.001 15.595 5.84 22.026.845 6.47.984 17.279.984 17.386a.277.277 0 0 0 .239.27Zm-.668-17.738c-.775-5.948-4.984-19.343-5.747-21.748l13.119.347c.731 12.482-4.7 31.473-6.42 37.138-.076-3.33-.322-10.79-.952-15.737Z" clip-rule="evenodd"/><path fill="#231F20" d="M63.951 130.873h59.553l-21.934-23.441-33.995 4.922s-4.071 9.203-3.687 15.661c.026.762.044 1.737.063 2.858Z"/><path fill="#231F20" fill-rule="evenodd" d="M63.951 131.188H123.511a.315.315 0 0 0 .233-.529l-21.935-23.441a.326.326 0 0 0-.277-.1l-34.027 4.922a.326.326 0 0 0-.24.182c-.17.384-4.095 9.348-3.71 15.812.043.775.081 1.788.081 2.846a.309.309 0 0 0 .315.308Zm58.822-.629h-58.5c0-.873-.037-1.703-.068-2.383l-.008-.179c-.353-5.848 3.056-14.1 3.592-15.359l33.661-4.872 21.323 22.793Z" clip-rule="evenodd"/><path fill="#fff" d="m101.179 47.608 1.708 8.693s.044 5.036-5.539 4.551a11.136 11.136 0 0 1-8.223-4.903l-2.262-15.183a27.44 27.44 0 0 0-.668-8.24c6.42-1.327 10.567-7.137 10.567-7.137s2.842 2.895 4.001 3.776c.933.639 1.78 1.394 2.521 2.248 1.216 1.504 1.575 3.606 1.89 5.463.397 2.204.593 4.44.586 6.679-.101 4.249-4.581 4.053-4.581 4.053Z"/><path fill="#231F20" fill-rule="evenodd" d="M97.323 61.174h.75a5.043 5.043 0 0 0 3.509-1.183 5.297 5.297 0 0 0 1.538-3.701l-1.645-8.353a5.295 5.295 0 0 0 3.258-1.259 4.145 4.145 0 0 0 1.26-3.097 37.213 37.213 0 0 0-.592-6.729c-.302-1.819-.687-4.01-1.947-5.596a13.512 13.512 0 0 0-2.521-2.291c-.849-.636-2.638-2.416-3.497-3.27a13.254 13.254 0 0 0-.479-.469.271.271 0 0 0-.226-.088.296.296 0 0 0-.215.12c-.038.056-4.152 5.765-10.384 7.024a.29.29 0 0 0-.183.126.258.258 0 0 0-.038.214c.59 2.442.814 4.958.668 7.466a3.846 3.846 0 0 0 0 .761c.007.076 2.262 15.183 2.262 15.183.007.037.02.073.038.107a11.344 11.344 0 0 0 8.444 5.035Zm.05-.604a10.954 10.954 0 0 1-7.97-4.72c-2.238-14.976-2.213-15.133-2.213-15.133a3.913 3.913 0 0 1 0-.63 25.516 25.516 0 0 0-.63-7.333c5.577-1.258 9.351-5.76 10.252-6.924.687.718 2.798 2.82 3.781 3.557a13.139 13.139 0 0 1 2.439 2.197c1.161 1.416 1.498 3.395 1.799 5.161l.028.164c.396 2.187.592 4.405.586 6.628a3.63 3.63 0 0 1-1.052 2.681 4.924 4.924 0 0 1-3.201 1.102.27.27 0 0 0-.233.1.31.31 0 0 0-.063.246l1.701 8.636a4.795 4.795 0 0 1-1.361 3.23c-.901.83-2.2 1.177-3.863 1.038Z" clip-rule="evenodd"/><path fill="#231F20" d="M101.942 51.889s-3.504.824-6.226-1.096-2.836-4.355-2.836-4.355 4.31 1.831 8.299 1.17l.763 4.28Z"/><path fill="#231F20" fill-rule="evenodd" d="M95.558 51.02a7.876 7.876 0 0 0 4.55 1.329 8.65 8.65 0 0 0 1.922-.19.277.277 0 0 0 .214-.32l-.769-4.28a.277.277 0 0 0-.315-.227c-3.54.59-7.41-.875-8.055-1.118-.057-.022-.089-.034-.092-.034a.265.265 0 0 0-.265.032.258.258 0 0 0-.12.239c0 .138.126 2.593 2.93 4.57Zm.34-.453a6.333 6.333 0 0 1-2.64-3.695c1.172.441 4.474 1.498 7.719 1.052l.668 3.745c-.838.157-3.572.434-5.746-1.102Z" clip-rule="evenodd"/><path fill="#fff" d="M96.529 32.785s3.598 3.651 3.069 4.5c-.53.85-2.483.73-2.483.73"/><path fill="#231F20" d="M97.417 38.3h-.321a.277.277 0 0 1-.258-.296.283.283 0 0 1 .296-.265c.498 0 1.89 0 2.23-.591.215-.353-1.197-2.298-3.03-4.161a.278.278 0 1 1 .396-.39c1.128 1.145 3.687 3.909 3.107 4.847-.479.761-1.796.856-2.42.856Z"/><ellipse cx="101.299" cy="33.875" fill="#231F20" rx=".5" ry=".919" transform="rotate(-13.01 101.299 33.875)"/><ellipse cx="93.271" cy="34.689" fill="#231F20" rx=".5" ry=".919" transform="rotate(-13.01 93.271 34.69)"/><path fill="#fff" d="M88.923 35.757c-.876-1.417-2.924-1.612-4.354-1.039a2.518 2.518 0 0 0-1.67 2.279c-.01.618.1 1.231.328 1.806a9.495 9.495 0 0 0 1.689 2.952c.343.458.796.822 1.317 1.058.67.237 1.419.042 1.89-.491"/><path fill="#231F20" d="M86.825 43.215c-.237 0-.472-.045-.693-.132a3.78 3.78 0 0 1-1.437-1.14 9.88 9.88 0 0 1-1.739-3.04 5.033 5.033 0 0 1-.347-1.925 2.808 2.808 0 0 1 1.853-2.518c1.575-.63 3.78-.378 4.707 1.152a.29.29 0 0 1-.492.302c-.787-1.26-2.646-1.467-4-.926a2.254 2.254 0 0 0-1.5 2.021 4.472 4.472 0 0 0 .308 1.7 9.252 9.252 0 0 0 1.639 2.864 3.15 3.15 0 0 0 1.203.969c.57.2 1.204.033 1.6-.422a.29.29 0 1 1 .41.403 2.162 2.162 0 0 1-1.512.692Z"/><path fill="#fff" d="m100.058 39.148-4.216.41s.876 6.508 2.773 6.332c1.896-.176 1.903-4.878 1.443-6.742Z"/><path fill="#231F20" fill-rule="evenodd" d="M95.565 39.596c.145 1.115.983 6.578 2.968 6.578l.107-.006a1.538 1.538 0 0 0 1.121-.705c1.046-1.467.927-4.935.567-6.383a.276.276 0 0 0-.296-.207l-4.222.409a.252.252 0 0 0-.189.107.245.245 0 0 0-.056.207Zm2.968 6.018c-1.116 0-2.023-3.424-2.376-5.804l3.686-.333c.328 1.586.29 4.5-.535 5.665-.157.256-.42.43-.719.472h-.056Z" clip-rule="evenodd"/><path fill="#231F20" d="M110.606 89.62a.283.283 0 0 1-.24-.434c.044-.082 4.676-7.862.246-24.065a.296.296 0 0 1 .202-.352.283.283 0 0 1 .352.201c4.506 16.467-.113 24.197-.315 24.55a.276.276 0 0 1-.245.1Z"/><path fill="#fff" d="m24.909 67.103 68.028 49.029 68.028-49.029v80.433H24.909V67.103Z"/><path fill="#231F20" fill-rule="evenodd" d="M24.594 147.535c0 .174.14.315.315.315h136.056a.32.32 0 0 0 .315-.315V67.103a.307.307 0 0 0-.176-.277.31.31 0 0 0-.328 0l-67.839 48.89-67.845-48.89a.309.309 0 0 0-.328 0 .302.302 0 0 0-.17.277v80.432Zm136.088-.314H25.205v-79.5l67.543 48.662c.11.081.261.081.372 0l67.562-48.663v79.501Z" clip-rule="evenodd"/><path fill="#231F20" d="M24.909 147.849a.315.315 0 0 1-.278-.164.321.321 0 0 1 .12-.428l62.244-35.57a.315.315 0 0 1 .428.119.309.309 0 0 1-.113.428l-62.25 35.571a.322.322 0 0 1-.151.044ZM160.965 147.851a.346.346 0 0 1-.157-.044l-62.244-35.571a.315.315 0 0 1-.12-.428.32.32 0 0 1 .429-.119l62.244 35.57a.315.315 0 0 1 .119.428.31.31 0 0 1-.271.164Z"/><path fill="#fff" d="M57.341 110.643s2.754 7.163 3.403 7.553c.65.39 8.318 3.525 7.77 4.992-.549 1.466-4.002-.321-4.002-.321s4.972 5.747 3.661 6.76c-1.31 1.013-5.721 3.072-7.492 2.235-1.77-.838-10.599-11.765-12.47-16.511"/><path fill="#231F20" d="M61.752 132.39c-.41.012-.82-.065-1.197-.227-1.89-.9-10.775-11.96-12.634-16.681a.317.317 0 1 1 .592-.226c1.89 4.84 10.775 15.61 12.306 16.366 1.532.755 5.835-1.159 7.171-2.197a.297.297 0 0 0 .095-.208c.12-1.259-2.71-4.828-3.78-6.099a.315.315 0 0 1 .383-.485c.63.327 2.433 1.108 3.24.799a.516.516 0 0 0 .32-.314c.152-.41-.844-1.436-6.458-4.035-.68-.315-1.04-.485-1.185-.579-.68-.435-2.873-6.024-3.528-7.724a.313.313 0 0 1 .182-.409.315.315 0 0 1 .404.183c1.31 3.405 2.898 7.113 3.289 7.427.107.07.567.284 1.103.529 4.524 2.09 7.233 3.632 6.786 4.828a1.158 1.158 0 0 1-.687.686 4.092 4.092 0 0 1-2.52-.289c1.216 1.516 3.226 4.242 3.1 5.539a.905.905 0 0 1-.334.629c-1.04.787-4.392 2.487-6.648 2.487Z"/><path fill="#7C5DFA" d="M69.156 55.402c-16.207 10.399-35.917 25.701-37.58 29.276-2.66 5.666 17.227 34.155 17.227 34.155l10.769-6.824-9.843-21.357 19.408-13.187"/><path fill="#231F20" d="M56.711 86.245a.284.284 0 0 1-.24-.12.296.296 0 0 1 .07-.403l21.79-15.239a.284.284 0 0 1 .403.07.29.29 0 0 1-.075.402l-21.784 15.24a.265.265 0 0 1-.164.05ZM151.387 129.433l26.409-16.146-22.376 9.31-4.033 6.836Z"/><path fill="#231F20" fill-rule="evenodd" d="M151.167 129.652a.31.31 0 0 0 .22.095.374.374 0 0 0 .164-.069l26.428-16.121a.314.314 0 0 0-.284-.56l-22.401 9.31a.296.296 0 0 0-.145.132l-4.033 6.829a.315.315 0 0 0 .051.384Zm1.134-1.164 3.333-5.665 18.526-7.699-21.859 13.364Z" clip-rule="evenodd"/><path fill="#fff" d="m155.42 122.597 8.633 4.412 13.743-13.722-22.376 9.31Z"/><path fill="#231F20" fill-rule="evenodd" d="M163.92 127.261a.258.258 0 0 0 .133.031.263.263 0 0 0 .208-.082l13.743-13.722a.279.279 0 0 0 .038-.359.291.291 0 0 0-.347-.107l-22.388 9.31a.303.303 0 0 0-.177.258.276.276 0 0 0 .158.264l8.632 4.407Zm.076-.605-7.895-4.028 20.46-8.517-12.565 12.545Z" clip-rule="evenodd"/><path fill="#fff" d="m177.796 113.287-28.431 6.786-6.465-3.695 34.896-3.091Z"/><path fill="#231F20" fill-rule="evenodd" d="M149.201 120.317a.27.27 0 0 0 .138.038l.07-.006 28.431-6.78a.288.288 0 0 0-.095-.566l-34.896 3.091a.288.288 0 0 0-.251.224.292.292 0 0 0 .131.311l6.472 3.688Zm.183-.56-5.571-3.179 30.101-2.637-24.53 5.816Z" clip-rule="evenodd"/><path fill="#fff" d="m149.365 120.073 2.022 9.36 4.033-6.836 22.376-9.31-28.431 6.786Z"/><path fill="#231F20" fill-rule="evenodd" d="M151.343 129.722h.045a.284.284 0 0 0 .27-.145l3.983-6.748 22.268-9.272a.284.284 0 1 0-.176-.541l-28.431 6.779a.284.284 0 0 0-.214.34l2.016 9.367a.29.29 0 0 0 .239.22Zm.171-1.077-1.809-8.365 24.669-5.885-19.067 7.931a.321.321 0 0 0-.139.119l-3.654 6.2Z" clip-rule="evenodd"/><path fill="#D1D3D4" d="M145.559 130.736a.314.314 0 0 1-.164-.579l1.052-.674a.317.317 0 0 1 .438.092.315.315 0 0 1-.091.437l-1.065.68a.35.35 0 0 1-.17.044Z"/><path fill="#D1D3D4" fill-rule="evenodd" d="M18.206 111.821a.31.31 0 0 0 .294.187c.097.002.19-.04.253-.114a25.99 25.99 0 0 1 1.783-1.743.315.315 0 0 0-.22-.54.31.31 0 0 0-.221.093 26.86 26.86 0 0 0-1.821 1.775.308.308 0 0 0-.068.342Zm-2.856 4.089a.325.325 0 0 1-.227-.081.31.31 0 0 1-.076-.435c.48-.692.996-1.378 1.525-2.033a.315.315 0 0 1 .441-.044.315.315 0 0 1 .05.441 29.252 29.252 0 0 0-1.499 1.995.323.323 0 0 1-.233.157h.019Zm-2.747 4.325a.293.293 0 0 0 .182.006l-.019-.006a.322.322 0 0 0 .259-.139c.365-.743.762-1.479 1.19-2.19a.322.322 0 0 0-.113-.435.31.31 0 0 0-.238-.034.311.311 0 0 0-.19.148 33.36 33.36 0 0 0-1.216 2.228.315.315 0 0 0 .145.422Zm-1.708 4.664a.25.25 0 0 1-.095 0 .315.315 0 0 1-.208-.397c.246-.793.536-1.598.857-2.391a.315.315 0 0 1 .58.239 33.56 33.56 0 0 0-.838 2.341.303.303 0 0 1-.296.208Zm-1.14 4.903h.044a.314.314 0 0 0 .308-.289c.107-.812.259-1.637.441-2.449a.314.314 0 0 0-.24-.377.32.32 0 0 0-.377.239c-.19.85-.334 1.693-.448 2.518a.32.32 0 0 0 .271.358Zm131.456 3.507a.315.315 0 0 1-.158-.586c.813-.466 1.544-.887 2.174-1.259a.316.316 0 0 1 .435.107c.088.15.04.343-.107.435-.63.377-1.367.805-2.187 1.258a.335.335 0 0 1-.138.045h-.019ZM9.263 134.523c.01.167.148.297.315.296h.019a.315.315 0 0 0 .296-.333c-.038-.479-.038-.97-.038-1.454v-1.026a.316.316 0 0 0-.53-.247.31.31 0 0 0-.1.221v1.052c0 .249.01.5.02.75.009.249.018.497.018.741Zm127.537 1.222a.31.31 0 0 1-.277-.164.32.32 0 0 1 .126-.428c.71-.378 1.384-.745 2.022-1.093l.19-.103a.315.315 0 1 1 .302.548c-.693.383-1.43.786-2.218 1.208a.29.29 0 0 1-.126.032h-.019Zm-4.757 2.146a.307.307 0 0 0 .283.176.293.293 0 0 0 .139-.038c.781-.39 1.531-.774 2.249-1.145a.315.315 0 1 0-.289-.56c-.719.377-1.469.755-2.244 1.145a.315.315 0 0 0-.138.422Zm-121.62 1.857a.315.315 0 0 1-.303-.233 22.964 22.964 0 0 1-.555-2.486.319.319 0 0 1 .63-.101c.126.823.299 1.639.517 2.442a.316.316 0 0 1-.214.39l-.076-.012Zm117.108.346c.051.11.162.18.284.176a.317.317 0 0 0 .132-.025l2.275-1.095a.316.316 0 0 0 .145-.422.318.318 0 0 0-.423-.145c-.731.359-1.487.724-2.268 1.089a.317.317 0 0 0-.145.422Zm-4.297 2.279a.327.327 0 0 1-.29-.183.306.306 0 0 1 .163-.415l.273-.123.232-.104c.606-.273 1.2-.54 1.783-.812a.316.316 0 0 1 .265.573c-.75.346-1.513.692-2.3 1.039a.305.305 0 0 1-.126.025Zm-110.909 2.039a.308.308 0 0 1-.277-.163 22.025 22.025 0 0 1-1.103-2.298.315.315 0 0 1 .336-.433.316.316 0 0 1 .25.194c.31.766.668 1.513 1.072 2.234a.32.32 0 0 1-.127.428.32.32 0 0 1-.15.038Zm101.307 1.73a.32.32 0 0 0 .301.108v.006a.406.406 0 0 0 .12-.018l2.344-.957a.316.316 0 0 0-.24-.586l-2.338.926a.32.32 0 0 0-.187.521Zm-98.635 2.248a.323.323 0 0 0 .24.107v.007a.315.315 0 0 0 .233-.088.32.32 0 0 0 0-.447 21.429 21.429 0 0 1-1.55-1.933.314.314 0 0 0-.293-.153.314.314 0 0 0-.218.518 22.59 22.59 0 0 0 1.588 1.989Zm89.471 1.303a.318.318 0 1 1-.1-.629c.8-.271 1.594-.541 2.375-.818a.32.32 0 0 1 .403.195.305.305 0 0 1-.189.396c-.787.277-1.581.554-2.388.825l-.101.031Zm-85.52 2.185a.314.314 0 0 1-.19-.063 26.077 26.077 0 0 1-1.965-1.612.313.313 0 0 1 0-.447.31.31 0 0 1 .441 0 24.617 24.617 0 0 0 1.922 1.574c.14.104.167.301.063.441a.326.326 0 0 1-.271.107Zm75.609.585a.31.31 0 0 0 .292.227h-.003a.23.23 0 0 0 .101-.013c.813-.227 1.62-.466 2.42-.705a.309.309 0 0 0 .214-.39.315.315 0 0 0-.39-.208l-2.414.699a.32.32 0 0 0-.22.39Zm-71.5 2.02a.32.32 0 0 0 .144.038v.013a.324.324 0 0 0 .145-.63c-.75-.384-1.48-.793-2.167-1.214a.306.306 0 0 0-.435.1.314.314 0 0 0 .1.435c.706.446 1.45.868 2.212 1.258Zm62.016.712a.317.317 0 0 1-.07-.63c.82-.189 1.633-.377 2.446-.579a.316.316 0 0 1 .378.233.315.315 0 0 1-.233.384h-.001l-.001.001h-.004v.001h-.004l-.001.001h-.003c-.809.194-1.617.388-2.438.57l-.069.019Zm-57.228 1.296a.284.284 0 0 1-.1 0 41.853 41.853 0 0 1-2.37-.912.315.315 0 0 1 .246-.579c.75.314 1.537.629 2.331.9a.319.319 0 1 1-.107.629v-.038Zm47.07.428a.309.309 0 0 0 .31.259h.056l2.483-.447a.315.315 0 0 0 .123-.569.309.309 0 0 0-.237-.048l-2.476.44a.321.321 0 0 0-.258.365Zm-42.224.982h-.076a58.135 58.135 0 0 1-2.45-.629.32.32 0 0 1-.215-.39.315.315 0 0 1 .39-.214c.782.22 1.595.434 2.42.629a.307.307 0 0 1 .233.378.315.315 0 0 1-.315.22l.013.006Zm37.247-.207a.32.32 0 0 0 .315.27l.019-.006 2.52-.371a.314.314 0 0 0 .258-.365.306.306 0 0 0-.359-.258l-2.483.371a.314.314 0 0 0-.27.359Zm-4.682.9a.315.315 0 1 1-.038-.63c.84-.092 1.68-.193 2.52-.302a.318.318 0 0 1 .082.63l-2.52.296-.044.006Zm-27.669.226h.031a.32.32 0 0 0 .303-.277.316.316 0 0 0-.265-.358c-.838-.12-1.67-.258-2.47-.409a.318.318 0 0 0-.362.42.32.32 0 0 0 .242.209c.839.151 1.677.29 2.521.415Zm22.653.259a.315.315 0 1 1 0-.63c.838-.069 1.67-.145 2.52-.227a.328.328 0 0 1 .347.284.315.315 0 0 1-.283.346c-.84.08-1.68.155-2.521.227h-.063Zm-20.12.056a77 77 0 0 0 2.52.227h.07a.315.315 0 1 0 0-.63 87.404 87.404 0 0 1-2.52-.22.303.303 0 0 0-.347.277.315.315 0 0 0 .277.346Zm15.092.271a.31.31 0 0 1-.31-.296.314.314 0 0 1 .297-.334c.838-.037 1.676-.088 2.52-.144a.308.308 0 0 1 .334.295.307.307 0 0 1-.29.334c-.837.057-1.675.107-2.52.145h-.031Zm-9.782.112h.001c.725.029 1.467.058 2.22.058h.005a.324.324 0 0 0 .234-.087c.062-.06.099-.142.1-.228a.314.314 0 0 0-.315-.315 99.954 99.954 0 0 1-2.52-.069.316.316 0 0 0-.328.302.322.322 0 0 0 .303.328l.3.011Zm4.425-.257a.322.322 0 0 0 .316.315h.006l1.506-.032 1.014-.031a.315.315 0 0 0 .31-.327.328.328 0 0 0-.328-.303l-1.015.032-1.5.031a.316.316 0 0 0-.309.315ZM79.838 156a.32.32 0 0 0 .309.252l.063-.006 2.47-.516a.31.31 0 0 0 .24-.372.315.315 0 0 0-.373-.245l-2.463.516a.315.315 0 0 0-.246.371Zm9.805-2.272c.02.171.173.294.343.278.03.008.062.008.091-.001.82-.201 1.632-.411 2.439-.629a.328.328 0 0 0 .232-.229.326.326 0 0 0-.396-.401l-2.432.63a.317.317 0 0 0-.277.352Zm9.735-2.7a.303.303 0 0 0 .296.22v.006a.254.254 0 0 0 .095-.018c.813-.252 1.613-.504 2.407-.762a.315.315 0 0 0 .201-.397.306.306 0 0 0-.397-.201l-.655.209c-.576.184-1.154.368-1.74.546a.315.315 0 0 0-.208.397Zm9.843-2.996a.33.33 0 0 1-.297-.208.315.315 0 0 1 .189-.403c.544-.197 1.079-.396 1.611-.595h.001l.001-.001h.001l.749-.279a.314.314 0 0 1 .221.585c-.781.296-1.569.586-2.369.875a.215.215 0 0 1-.107.032v-.006Zm9.099-3.859a.3.3 0 0 0 .289.195.272.272 0 0 0 .12-.025l2.325-.982a.315.315 0 1 0-.252-.579c-.562.262-1.135.496-1.715.734l-.604.248a.314.314 0 0 0-.163.409Z" clip-rule="evenodd"/><path fill="#D1D3D4" d="M22.269 108.616a.31.31 0 0 1-.246-.12.321.321 0 0 1 .057-.447c.34-.251.68-.503 1.027-.749a.315.315 0 1 1 .359.517c-.34.239-.674.484-1.002.736a.319.319 0 0 1-.195.063ZM163.58 71.005a.285.285 0 0 1-.214-.088.31.31 0 0 1 0-.44s.309-.328.844-.92a.316.316 0 0 1 .564.092.316.316 0 0 1-.097.324c-.542.63-.857.938-.857.938a.31.31 0 0 1-.24.094Z"/><path fill="#D1D3D4" fill-rule="evenodd" d="M164.242 13.794h.057v-.019a.309.309 0 0 0 .309-.239.322.322 0 0 0-.259-.365 22.717 22.717 0 0 0-2.558-.29.296.296 0 0 0-.334.296.314.314 0 0 0 .296.334c.835.045 1.666.14 2.489.283Zm4.909 1.48a.346.346 0 0 1-.133 0 18.762 18.762 0 0 0-2.337-.882.328.328 0 1 1 .182-.63c.826.248 1.635.55 2.42.907a.306.306 0 0 1-.132.585v.02Zm4.033 2.675a.337.337 0 0 0 .207.075v-.019c.08 0 .156-.029.215-.082a.32.32 0 0 0 0-.447 17.3 17.3 0 0 0-2.061-1.567.314.314 0 1 0-.34.529c.697.453 1.358.958 1.979 1.51Zm3.446 3.959a.322.322 0 0 1-.271-.145 17.449 17.449 0 0 0-1.449-2.027.314.314 0 0 1 .044-.44.31.31 0 0 1 .441.037 18.66 18.66 0 0 1 1.5 2.078.309.309 0 0 1-.265.478v.019Zm1.802 4.387c.044.13.166.216.303.214v-.019c.033.008.067.01.101.007a.315.315 0 0 0 .195-.397 23.114 23.114 0 0 0-.926-2.398.316.316 0 0 0-.574.264c.343.76.644 1.537.901 2.33Zm1.443 5.149a.322.322 0 0 1-.315-.27 29.115 29.115 0 0 0-.46-2.468.323.323 0 0 1 .631-.139c.182.806.34 1.656.466 2.518a.32.32 0 0 1-.265.359h-.057Zm.095 4.727a.314.314 0 0 0 .315.309h.006a.321.321 0 0 0 .309-.321 47.084 47.084 0 0 0-.126-2.55.315.315 0 0 0-.34-.29.31.31 0 0 0-.29.334c.063.819.126 1.662.126 2.518Zm.17 5.382h-.031a.315.315 0 0 1-.284-.34c0-.15.016-.3.033-.448.012-.113.025-.225.03-.339 0-.356.021-.71.042-1.059.013-.224.026-.446.034-.665a.31.31 0 0 1 .094-.223.31.31 0 0 1 .227-.086.321.321 0 0 1 .309.321c0 .436-.026.876-.052 1.325l-.024.425c0 .201-.021.4-.042.599l-.021.207a.321.321 0 0 1-.315.283Zm-1.153 4.96h.12a.323.323 0 0 0 .29-.176c.239-.875.453-1.712.63-2.518a.315.315 0 0 0-.618-.132 27.75 27.75 0 0 1-.63 2.43.32.32 0 0 0 .208.396Zm-1.739 4.734a.335.335 0 0 1-.133 0 .311.311 0 0 1-.151-.416c.359-.786.693-1.567.983-2.322a.317.317 0 1 1 .593.226 41.377 41.377 0 0 1-1.002 2.354.329.329 0 0 1-.265.158h-.025Zm-2.495 4.469c.047.03.101.045.157.044h.025a.315.315 0 0 0 .246-.157c.435-.756.851-1.505 1.229-2.241a.315.315 0 0 0-.561-.29 51.856 51.856 0 0 1-1.21 2.216.31.31 0 0 0 .114.428Zm-2.54 4.35a.31.31 0 0 1-.258-.492c.46-.686.926-1.39 1.38-2.12a.322.322 0 0 1 .435-.102.315.315 0 0 1 .094.435 76.649 76.649 0 0 1-1.386 2.14.316.316 0 0 1-.24.139h-.025Zm-3.15 4.072c.055.038.121.06.189.063l.025.013a.31.31 0 0 0 .227-.139 86.574 86.574 0 0 0 1.518-2.052.316.316 0 1 0-.517-.365 74.64 74.64 0 0 1-1.499 2.033.32.32 0 0 0 .057.447Zm-3.17 3.953a.328.328 0 0 0 .208.076.31.31 0 0 0 .271-.114c.491-.579 1.04-1.24 1.619-1.97a.312.312 0 0 0 .069-.23.315.315 0 0 0-.56-.16c-.272.328-.536.652-.79.963-.286.352-.56.687-.817.994a.31.31 0 0 0 0 .441Z" clip-rule="evenodd"/><path fill="#D1D3D4" d="M157.953 13.611a.316.316 0 0 1-.05-.63c.417-.064.838-.106 1.26-.125a.315.315 0 1 1 .038.63c-.762.044-1.216.113-1.216.113l-.032.012Z"/><path fill="#fff" d="M1.9 42.011a2.578 2.578 0 0 1 .366-3.63l17.483-14.274a2.578 2.578 0 0 1 3.626.365l6.732 8.228a2.578 2.578 0 0 1-.365 3.63L12.259 50.602a2.578 2.578 0 0 1-3.626-.364L1.9 42.011Z"/><path fill="#D1D3D4" fill-rule="evenodd" d="M10.302 51.896h.196c.441 0 .87-.153 1.21-.435l18.998-15.51a1.888 1.888 0 0 0 .27-2.687L23 23.514a1.891 1.891 0 0 0-2.69-.271L1.31 38.759a1.888 1.888 0 0 0-.271 2.688l8.002 9.756a1.89 1.89 0 0 0 1.26.693Zm10.404-28.169c.231-.182.518-.282.813-.283.389 0 .756.178.995.485l7.978 9.731a1.258 1.258 0 0 1-.183 1.8L11.323 50.978c-.264.213-.6.315-.939.283a1.26 1.26 0 0 1-.863-.466L1.544 41.05a1.315 1.315 0 0 1-.284-.944c.028-.336.189-.646.448-.863l18.998-15.516Z" clip-rule="evenodd"/><path fill="#D1D3D4" d="M.945 40.294a.315.315 0 0 1-.315-.315.308.308 0 0 1 .284-.34l15.835-1.372 4.499-15.226a.308.308 0 0 1 .39-.214.315.315 0 0 1 .208.39l-4.55 15.434a.309.309 0 0 1-.27.227L.976 40.294h-.03Z"/><path fill="#D1D3D4" d="M17.644 36.62a.315.315 0 1 1 0-.63l13.396-1.53a.321.321 0 0 1 .347.277.315.315 0 0 1-.278.353L17.7 36.62h-.056ZM10.479 51.895a.254.254 0 0 1-.095 0 .31.31 0 0 1-.201-.397l4.165-12.809a.33.33 0 0 1 .63.195l-4.165 12.81a.321.321 0 0 1-.334.201Z"/><path fill="#fff" d="M171.756 85.084a2.07 2.07 0 0 1 2.722-1.076l16.66 7.215a2.07 2.07 0 0 1 1.076 2.725l-3.404 7.844a2.07 2.07 0 0 1-2.722 1.075l-16.66-7.215a2.071 2.071 0 0 1-1.077-2.725l3.405-7.843Z"/><path fill="#D1D3D4" fill-rule="evenodd" d="M186.7 103.461c.199.085.413.13.63.132a1.65 1.65 0 0 0 .592-.132 1.59 1.59 0 0 0 .876-.85l4.033-9.272c.164-.39.164-.83 0-1.221a1.597 1.597 0 0 0-.851-.881L173.877 83.4a1.608 1.608 0 0 0-2.105.83l-4.026 9.285a1.62 1.62 0 0 0 0 1.228c.156.394.465.71.857.875l18.097 7.843Zm-14.304-18.979a.97.97 0 0 1 .888-.585c.124.002.247.03.36.082l18.09 7.843c.239.1.426.293.517.535a.96.96 0 0 1 0 .736l-4.033 9.291a.944.944 0 0 1-.529.516.978.978 0 0 1-.744 0l-18.103-7.843a.963.963 0 0 1-.504-1.259l4.058-9.316Z" clip-rule="evenodd"/><path fill="#D1D3D4" d="M179.793 94.893a.302.302 0 0 1-.264-.145l-6.932-10.94a.315.315 0 1 1 .536-.333l6.793 10.757 12.508-2.398a.308.308 0 0 1 .371.245.32.32 0 0 1-.252.372l-12.715 2.442h-.045Z"/><path fill="#D1D3D4" d="M187.695 103.536a.323.323 0 0 1-.264-.138l-6.037-8.97a.314.314 0 0 1 .523-.346l6.037 8.995a.32.32 0 0 1-.089.44.328.328 0 0 1-.17.019ZM168.086 95.057a.312.312 0 0 1-.257-.499.314.314 0 0 1 .206-.124l10.712-1.75a.32.32 0 0 1 .101.63l-10.712 1.749-.05-.006Z"/><path fill="#fff" d="M50.596 11.235a1.512 1.512 0 0 1 1.911-.96L65.11 14.45a1.512 1.512 0 0 1 .96 1.912l-1.97 5.936a1.512 1.512 0 0 1-1.91.96l-12.602-4.174a1.512 1.512 0 0 1-.96-1.912l1.97-5.936Z"/><path fill="#D1D3D4" fill-rule="evenodd" d="M62.622 23.728a1.261 1.261 0 0 0 1.588-.8l2.325-7.024a1.259 1.259 0 0 0-.794-1.586L52.048 9.786a1.26 1.26 0 0 0-1.581.799l-2.332 7.025a1.258 1.258 0 0 0 .794 1.586l13.693 4.532Zm.674-.598a.63.63 0 0 1-.479 0l-13.674-4.5a.63.63 0 0 1-.365-.309.66.66 0 0 1 0-.478l2.331-7.025a.63.63 0 0 1 .788-.397l13.693 4.532a.63.63 0 0 1 .359.315.628.628 0 0 1 0 .478l-2.338 7.019a.63.63 0 0 1-.315.365Z" clip-rule="evenodd"/><path fill="#D1D3D4" d="M57.058 17.95a.321.321 0 0 1-.252-.127l-5.766-7.515a.314.314 0 0 1 .498-.384l5.614 7.346 8.898-2.518a.316.316 0 0 1 .39.22.315.315 0 0 1-.22.384l-9.1 2.606-.062-.013Z"/><path fill="#D1D3D4" d="M63.371 23.727a.302.302 0 0 1-.245-.12l-4.978-6.156a.315.315 0 1 1 .491-.396l4.978 6.162a.315.315 0 0 1-.245.51ZM48.52 18.818a.317.317 0 1 1-.076-.63l7.675-1.963a.316.316 0 0 1 .384.226.308.308 0 0 1-.227.378l-7.674 1.97-.082.02Z"/></svg>
